<svg width="24" height="24" viewBox="0 0 24 24" fill="none" xmlns="http://www.w3.org/2000/svg">
<path d="M16.4316 6.96938L15.1838 4.99781C14.9208 4.69125 14.5603 4.5 14.1563 4.5H9.84375C9.43969 4.5 9.07922 4.69125 8.81625 4.99781L7.56844 6.96938C7.30547 7.27641 6.96656 7.5 6.5625 7.5H3.75C3.35218 7.5 2.97064 7.65804 2.68934 7.93934C2.40804 8.22065 2.25 8.60218 2.25 9V18C2.25 18.3978 2.40804 18.7794 2.68934 19.0607C2.97064 19.342 3.35218 19.5 3.75 19.5H20.25C20.6478 19.5 21.0294 19.342 21.3107 19.0607C21.592 18.7794 21.75 18.3978 21.75 18V9C21.75 8.60218 21.592 8.22065 21.3107 7.93934C21.0294 7.65804 20.6478 7.5 20.25 7.5H17.4844C17.0789 7.5 16.6945 7.27641 16.4316 6.96938Z" stroke="#0E111A" stroke-width="1.50251" stroke-linecap="round" stroke-linejoin="round"/>
<path d="M12.0005 16.5006C14.0719 16.5006 15.7511 14.8214 15.7511 12.75C15.7511 10.6787 14.0719 8.99951 12.0005 8.99951C9.92917 8.99951 8.25 10.6787 8.25 12.75C8.25 14.8214 9.92917 16.5006 12.0005 16.5006Z" stroke="#0E111A" stroke-width="1.50251" stroke-miterlimit="10"/>
<path d="M5.82259 7.41481V6.37476H4.68799V7.41481" stroke="#0E111A" stroke-width="1.50251" stroke-linecap="round" stroke-linejoin="round"/>
</svg>
