<svg width="24" height="24" viewBox="0 0 24 24" fill="none" xmlns="http://www.w3.org/2000/svg">
<path d="M22.0005 16.7483C22.0005 14.7408 20.3717 13.1121 18.3642 13.1121C16.3568 13.1121 14.728 14.7408 14.728 16.7483C14.728 18.7558 16.3568 20.3845 18.3642 20.3845C20.3717 20.3845 22.0005 18.7558 22.0005 16.7483Z" stroke="#0E111A" stroke-width="1.21207" stroke-linecap="round"/>
<path d="M18.3644 15.5361V17.9603M19.5765 16.7482H17.1523" stroke="#0E111A" stroke-width="0.969659" stroke-linecap="round" stroke-linejoin="round"/>
<path d="M16.5454 3.61572C17.8847 3.61572 18.971 4.70225 18.9712 6.0415V11.5317C18.7722 11.5088 18.5699 11.4956 18.3647 11.4956C18.1594 11.4956 17.9565 11.5088 17.7573 11.5317V6.0415C17.7572 5.37278 17.2142 4.83057 16.5454 4.83057H4.42529C3.75671 4.83077 3.2145 5.3729 3.21436 6.0415V13.1724L6.8042 9.98096H6.80518C7.15184 9.6733 7.6036 9.50932 8.06689 9.52295C8.52988 9.53677 8.9696 9.72792 9.29736 10.0552L9.29834 10.0542L12.6099 13.3599L13.5161 12.4546L13.6411 12.3403C13.9442 12.0886 14.3226 11.9408 14.7192 11.9224C15.0851 11.9054 15.4445 12.0013 15.7534 12.1909C15.2585 12.4751 14.8137 12.8365 14.437 13.2603C14.4156 13.2766 14.3947 13.2938 14.3755 13.313H14.3745L10.7397 16.9487H13.1167C13.1324 17.3679 13.1978 17.7741 13.3062 18.1626H4.42529C3.08609 18.1624 1.99951 17.077 1.99951 15.7378V6.0415C1.99966 4.70237 3.08618 3.61593 4.42529 3.61572H16.5454ZM8.03076 10.7368C7.87673 10.7323 7.72608 10.7868 7.61084 10.8892L3.21436 14.7974V15.7378C3.21436 16.4065 3.75662 16.9485 4.42529 16.9487H9.02197L11.7515 14.2183L8.44092 10.9136H8.43994C8.33098 10.8049 8.18462 10.7414 8.03076 10.7368ZM13.9214 6.04053C15.1489 6.04085 16.144 7.03655 16.144 8.26416C16.1438 9.49154 15.1488 10.4865 13.9214 10.4868C12.6937 10.4868 11.698 9.49174 11.6978 8.26416C11.6978 7.03635 12.6936 6.04053 13.9214 6.04053ZM13.9214 7.25537C13.3641 7.25537 12.9126 7.70688 12.9126 8.26416C12.9129 8.82121 13.3643 9.27295 13.9214 9.27295C14.4782 9.27263 14.9299 8.82101 14.9302 8.26416C14.9302 7.70708 14.4784 7.25569 13.9214 7.25537Z" fill="#0E111A"/>
</svg>
