<svg width="24" height="24" viewBox="0 0 24 24" fill="none" xmlns="http://www.w3.org/2000/svg">
<path d="M19.5 3.75H4.5C3.25736 3.75 2.25 4.75736 2.25 6V18C2.25 19.2426 3.25736 20.25 4.5 20.25H19.5C20.7426 20.25 21.75 19.2426 21.75 18V6C21.75 4.75736 20.7426 3.75 19.5 3.75Z" stroke="#0E111A" stroke-width="1.50251" stroke-linejoin="round"/>
<path d="M16 11C17.1046 11 18 10.1046 18 9C18 7.89543 17.1046 7 16 7C14.8954 7 14 7.89543 14 9C14 10.1046 14.8954 11 16 11Z" stroke="#0E111A" stroke-width="1.50251" stroke-miterlimit="10"/>
<path d="M14.25 15.74L10.0003 11.4983C9.72989 11.2279 9.36642 11.0711 8.9842 11.0597C8.60198 11.0484 8.22986 11.1835 7.94391 11.4374L2.25 16.4999" stroke="#0E111A" stroke-width="1.50251" stroke-linecap="round" stroke-linejoin="round"/>
<path d="M10.5005 20.2491L16.2821 14.4675C16.5465 14.2026 16.9004 14.0461 17.2743 14.0287C17.6482 14.0114 18.015 14.1344 18.3028 14.3738L21.7505 17.2491" stroke="#0E111A" stroke-width="1.50251" stroke-linecap="round" stroke-linejoin="round"/>
</svg>
