<svg width="24" height="24" viewBox="0 0 24 24" fill="none" xmlns="http://www.w3.org/2000/svg">
<path d="M12 3.375C7.23703 3.375 3.375 7.23703 3.375 12C3.375 16.763 7.23703 20.625 12 20.625C16.763 20.625 20.625 16.763 20.625 12C20.625 7.23703 16.763 3.375 12 3.375Z" stroke="#0E111A" stroke-width="1.50251" stroke-miterlimit="10"/>
<path d="M10.687 10.6885H12.1876V16.1282" stroke="#0E111A" stroke-width="1.50251" stroke-linecap="round" stroke-linejoin="round"/>
<path d="M10.1235 16.313H14.2516" stroke="#0E111A" stroke-width="1.50251" stroke-miterlimit="10" stroke-linecap="round"/>
<path d="M12.004 6.46924C11.7622 6.46924 11.5259 6.54092 11.3249 6.67522C11.1239 6.80952 10.9673 7.00041 10.8748 7.22375C10.7823 7.44708 10.7581 7.69283 10.8052 7.92993C10.8524 8.16702 10.9688 8.3848 11.1397 8.55573C11.3107 8.72667 11.5284 8.84307 11.7655 8.89023C12.0026 8.93739 12.2484 8.91319 12.4717 8.82068C12.695 8.72817 12.8859 8.57152 13.0202 8.37052C13.1545 8.16952 13.2262 7.93321 13.2262 7.69148C13.2262 7.36732 13.0974 7.05644 12.8682 6.82722C12.639 6.59801 12.3281 6.46924 12.004 6.46924V6.46924Z" fill="#0E111A"/>
</svg>
