<svg width="24" height="24" viewBox="0 0 24 24" fill="none" xmlns="http://www.w3.org/2000/svg">
<path d="M21.0001 17.4878C21.0001 15.3064 19.2303 13.5366 17.0489 13.5366C14.8675 13.5366 13.0977 15.3064 13.0977 17.4878C13.0977 19.6692 14.8675 21.4391 17.0489 21.4391C19.2303 21.4391 21.0001 19.6692 21.0001 17.4878Z" stroke="#0E111A" stroke-width="1.31707" stroke-linecap="round"/>
<path d="M17.049 16.1707V18.8048M18.3661 17.4877H15.7319" stroke="#0E111A" stroke-width="1.05366" stroke-linecap="round" stroke-linejoin="round"/>
<path d="M17.0488 11.3415V8.46512C17.0488 8.05431 16.9048 7.65649 16.6418 7.3409L13.1851 3.19291C12.8514 2.79253 12.3572 2.56104 11.836 2.56104H10.0244H6.51219C4.57246 2.56104 3 4.1335 3 6.07323V16.6098C3 18.5495 4.57247 20.122 6.5122 20.122H10.9024" stroke="#0E111A" stroke-width="1.31707" stroke-linecap="round"/>
<path d="M12.6587 3V6.07317C12.6587 7.04304 13.4449 7.82927 14.4148 7.82927H16.6099" stroke="#0E111A" stroke-width="1.31707" stroke-linecap="round"/>
</svg>
