<svg width="24" height="24" viewBox="0 0 24 24" fill="none" xmlns="http://www.w3.org/2000/svg">
<path d="M15 6.84277C15 6.84277 16.1419 6.28027 12 6.28027C10.5166 6.28027 9.06659 6.72014 7.83323 7.54425C6.59986 8.36836 5.63856 9.5397 5.07091 10.9101C4.50325 12.2806 4.35472 13.7886 4.64411 15.2434C4.9335 16.6983 5.64781 18.0347 6.6967 19.0836C7.7456 20.1325 9.08197 20.8468 10.5368 21.1362C11.9917 21.4255 13.4997 21.277 14.8701 20.7094C16.2406 20.1417 17.4119 19.1804 18.236 17.947C19.0601 16.7137 19.5 15.2636 19.5 13.7803" stroke="#0E111A" stroke-width="1.50251" stroke-miterlimit="10" stroke-linecap="round"/>
<path d="M12 2.71973L15.7505 6.47026L12 10.2208" stroke="#0E111A" stroke-width="1.50251" stroke-linecap="round" stroke-linejoin="round"/>
</svg>
