<svg width="24" height="24" viewBox="0 0 24 24" fill="none" xmlns="http://www.w3.org/2000/svg">
<g clip-path="url(#clip0_595_36653)">
<path d="M22.2566 1.74358C21.6192 1.10719 20.7553 0.749756 19.8547 0.749756C18.954 0.749756 18.0901 1.10719 17.4527 1.74358L0.75 18.4463V23.2501H5.55382L22.2566 6.5474C22.8927 5.90991 23.25 5.04609 23.25 4.14549C23.25 3.24489 22.8927 2.38107 22.2566 1.74358V1.74358ZM4.78131 21.3751H2.62503V19.2188L15.1033 6.7499L17.2596 8.90618L4.78131 21.3751ZM20.9309 5.22175L18.5806 7.5721L16.429 5.41582L18.7784 3.06922C19.0643 2.78328 19.4521 2.62264 19.8565 2.62264C20.2609 2.62264 20.6487 2.78328 20.9347 3.06922C21.2206 3.35516 21.3812 3.74298 21.3812 4.14736C21.3812 4.55175 21.2206 4.93956 20.9347 5.22551L20.9309 5.22175Z" fill="#0E111A"/>
</g>
<defs>
<clipPath id="clip0_595_36653">
<rect width="24" height="24" fill="white"/>
</clipPath>
</defs>
</svg>
