<svg width="24" height="24" viewBox="0 0 24 24" fill="none" xmlns="http://www.w3.org/2000/svg">
<path d="M2 11.5C2 10.241 2.59278 9.05542 3.6 8.3L9.6 3.8C11.0222 2.73333 12.9778 2.73333 14.4 3.8L20.4 8.3C21.4072 9.05542 22 10.241 22 11.5V18C22 20.2091 20.2091 22 18 22H16.1579C15.6056 22 15.1579 21.5523 15.1579 21V18C15.1579 16.8954 14.2625 16 13.1579 16H10.8421C9.73753 16 8.84211 16.8954 8.84211 18V21C8.84211 21.5523 8.39439 22 7.84211 22H6C3.79086 22 2 20.2091 2 18L2 11.5Z" fill="#0E111A" stroke="#0E111A" stroke-width="1.5"/>
</svg>
