<svg width="24" height="24" viewBox="0 0 24 24" fill="none" xmlns="http://www.w3.org/2000/svg">
<path d="M16.3929 6.82132H15.6161C15.6161 8.68035 14.109 10.1874 12.25 10.1874V10.9642V11.741C14.967 11.741 17.1696 9.53837 17.1696 6.82132H16.3929ZM12.25 10.9642V10.1874C10.391 10.1874 8.88393 8.68035 8.88393 6.82132H8.10714H7.33036C7.33036 9.53837 9.53296 11.741 12.25 11.741V10.9642ZM8.10714 6.82132H8.88393C8.88393 4.96229 10.391 3.45525 12.25 3.45525V2.67847V1.90168C9.53296 1.90168 7.33036 4.10428 7.33036 6.82132H8.10714ZM12.25 2.67847V3.45525C14.109 3.45525 15.6161 4.96229 15.6161 6.82132H16.3929H17.1696C17.1696 4.10428 14.967 1.90168 12.25 1.90168V2.67847ZM20.5 17.6963H19.7232C19.7232 17.9048 19.6139 18.1912 19.2415 18.5418C18.8714 18.8902 18.306 19.2367 17.5757 19.5434C16.1187 20.1553 14.1598 20.5445 12.25 20.5445V21.3213V22.0981C14.3443 22.0981 16.5104 21.6758 18.1773 20.9758C19.0091 20.6265 19.7553 20.1918 20.3065 19.6729C20.8554 19.1561 21.2768 18.4889 21.2768 17.6963H20.5ZM12.25 21.3213V20.5445C10.3402 20.5445 8.38131 20.1553 6.92426 19.5434C6.19402 19.2367 5.62856 18.8902 5.25848 18.5418C4.8861 18.1912 4.77679 17.9048 4.77679 17.6963H4H3.22321C3.22321 18.4889 3.64464 19.1561 4.1935 19.6729C4.74466 20.1918 5.49094 20.6265 6.3227 20.9758C7.98962 21.6758 10.1557 22.0981 12.25 22.0981V21.3213ZM4 17.6963H4.77679C4.77679 17.4879 4.8861 17.2015 5.25848 16.8509C5.62856 16.5024 6.19402 16.1559 6.92426 15.8493C8.38131 15.2373 10.3402 14.8481 12.25 14.8481V14.0713V13.2945C10.1557 13.2945 7.98962 13.7168 6.3227 14.4169C5.49094 14.7662 4.74466 15.2008 4.1935 15.7198C3.64464 16.2365 3.22321 16.9037 3.22321 17.6963H4ZM12.25 14.0713V14.8481C14.1598 14.8481 16.1187 15.2373 17.5757 15.8493C18.306 16.1559 18.8714 16.5024 19.2415 16.8509C19.6139 17.2015 19.7232 17.4879 19.7232 17.6963H20.5H21.2768C21.2768 16.9037 20.8554 16.2365 20.3065 15.7198C19.7553 15.2008 19.0091 14.7662 18.1773 14.4169C16.5104 13.7168 14.3443 13.2945 12.25 13.2945V14.0713Z" fill="#0E111A"/>
</svg>
